<?xml version="1.0" encoding="utf-8"?>
<svg width="165px" height="45px" viewBox="0 0 165 45" version="1.1" xmlns:xlink="http://www.w3.org/1999/xlink" xmlns="http://www.w3.org/2000/svg">
  <g id="logo" transform="translate(3 3)">
    <path d="M-265 227L-265 227L-265 266L-427 266L-427 227L-265 227Z" id="logo" fill="none" stroke="none" />
    <g id="brightness-low-fill" fill-opacity="1" transform="translate(-3 -3)">
      <path d="M45 0L45 0L45 45L0 45L0 0L45 0Z" id="brightness-low-fill" fill="none" stroke="none" />
      <path d="M22.5 8.4375C23.2767 8.4375 23.9062 7.8079 23.9062 7.03125C23.9062 6.2546 23.2767 5.625 22.5 5.625C21.7233 5.625 21.0938 6.2546 21.0938 7.03125C21.0938 7.8079 21.7233 8.4375 22.5 8.4375L22.5 8.4375ZM10.5676 12.5562C10.0184 12.007 10.0184 11.1166 10.5676 10.5674C11.1167 10.0183 12.0071 10.0183 12.5563 10.5674C13.1055 11.1166 13.1055 12.007 12.5563 12.5562C12.0071 13.1054 11.1167 13.1054 10.5676 12.5562L10.5676 12.5562ZM32.4437 12.5563C32.9929 13.1055 33.8832 13.1055 34.4324 12.5563C34.9816 12.0071 34.9816 11.1168 34.4324 10.5676C33.8832 10.0184 32.9929 10.0184 32.4437 10.5676C31.8945 11.1168 31.8945 12.0071 32.4437 12.5563L32.4437 12.5563ZM22.5 33.75C28.7132 33.75 33.75 28.7132 33.75 22.5C33.75 16.2868 28.7132 11.25 22.5 11.25C16.2868 11.25 11.25 16.2868 11.25 22.5C11.25 28.7132 16.2868 33.75 22.5 33.75L22.5 33.75ZM5.625 22.5C5.625 23.2767 6.2546 23.9062 7.03125 23.9062C7.8079 23.9062 8.4375 23.2767 8.4375 22.5C8.4375 21.7233 7.8079 21.0938 7.03125 21.0938C6.2546 21.0938 5.625 21.7233 5.625 22.5L5.625 22.5ZM36.5625 22.5C36.5625 23.2767 37.1921 23.9062 37.9688 23.9062C38.7454 23.9062 39.375 23.2767 39.375 22.5C39.375 21.7233 38.7454 21.0938 37.9688 21.0938C37.1921 21.0938 36.5625 21.7233 36.5625 22.5L36.5625 22.5ZM32.4437 34.4323C31.8945 33.8831 31.8945 32.9927 32.4437 32.4436C32.9929 31.8944 33.8832 31.8944 34.4324 32.4436C34.9816 32.9927 34.9816 33.8831 34.4324 34.4323C33.8832 34.9815 32.9929 34.9815 32.4437 34.4323L32.4437 34.4323ZM12.5563 34.4324C12.0071 34.9816 11.1167 34.9816 10.5676 34.4324C10.0184 33.8833 10.0184 32.9929 10.5676 32.4437C11.1167 31.8945 12.0071 31.8945 12.5563 32.4437C13.1055 32.9929 13.1055 33.8833 12.5563 34.4324L12.5563 34.4324ZM22.5 39.375C23.2767 39.375 23.9062 38.7454 23.9062 37.9688C23.9062 37.1921 23.2767 36.5625 22.5 36.5625C21.7233 36.5625 21.0938 37.1921 21.0938 37.9688C21.0938 38.7454 21.7233 39.375 22.5 39.375L22.5 39.375Z" id="Vector" fill="#FFC700" fill-rule="evenodd" stroke="none" />
    </g>
    <path d="M112.14 10L113.498 10C113.498 10.6677 113.268 11.2138 112.807 11.6383C112.346 12.0628 111.721 12.2751 110.931 12.2751C110.153 12.2751 109.534 12.0628 109.073 11.6383C108.617 11.2138 108.388 10.6677 108.388 10L109.746 10C109.746 10.3215 109.835 10.6038 110.011 10.847C110.192 11.0902 110.499 11.2118 110.931 11.2118C111.363 11.2118 111.671 11.0902 111.856 10.847C112.046 10.6038 112.14 10.3215 112.14 10L112.14 10ZM147.096 19.4961C147.096 20.8315 146.855 21.9856 146.374 22.9583C145.893 23.931 145.232 24.6811 144.393 25.2087C143.554 25.7362 142.595 26 141.518 26C140.44 26 139.481 25.7362 138.642 25.2087C137.803 24.6811 137.142 23.931 136.661 22.9583C136.18 21.9856 135.939 20.8315 135.939 19.4961C135.939 18.1607 136.18 17.0067 136.661 16.034C137.142 15.0613 137.803 14.3112 138.642 13.7836C139.481 13.2561 140.44 12.9923 141.518 12.9923C142.595 12.9923 143.554 13.2561 144.393 13.7836C145.232 14.3112 145.893 15.0613 146.374 16.034C146.855 17.0067 147.096 18.1607 147.096 19.4961L147.096 19.4961ZM44 14.5255L44 13.1654L53.4787 13.1654L53.4787 14.5255L49.5046 14.5255L49.5046 25.8269L47.9741 25.8269L47.9741 14.5255L44 14.5255L44 14.5255ZM55.8406 25.8269L55.8406 13.1654L63.468 13.1654L63.468 14.5255L57.3711 14.5255L57.3711 18.8037L63.0731 18.8037L63.0731 20.1638L57.3711 20.1638L57.3711 24.4668L63.5668 24.4668L63.5668 25.8269L55.8406 25.8269L55.8406 25.8269ZM75.6805 13.1654L75.6805 25.8269L74.1501 25.8269L74.1501 14.5255L67.7816 14.5255L67.7816 25.8269L66.2511 25.8269L66.2511 13.1654L75.6805 13.1654L75.6805 13.1654ZM77.6814 25.8269L77.6814 24.4173L78.0517 24.4173C78.5783 24.4173 78.9876 24.2483 79.2797 23.9104C79.5718 23.5724 79.7816 23.0263 79.9092 22.272C80.0408 21.5178 80.1293 20.5183 80.1745 19.2736L80.3967 13.1654L88.0981 13.1654L88.0981 25.8269L86.5677 25.8269L86.5677 14.5255L81.853 14.5255L81.6555 19.5703C81.6062 20.8975 81.4848 22.0268 81.2915 22.9583C81.0981 23.8897 80.7587 24.6007 80.2732 25.0912C79.7878 25.5817 79.0802 25.8269 78.1504 25.8269L77.6814 25.8269L77.6814 25.8269ZM92.6862 18.4822L95.8952 18.4822C96.8003 18.4822 97.5634 18.6306 98.1846 18.9274C98.81 19.2241 99.2831 19.6425 99.604 20.1824C99.929 20.7223 100.091 21.3591 100.091 22.0927C100.091 22.8264 99.929 23.4735 99.604 24.034C99.2831 24.5945 98.81 25.0335 98.1846 25.3509C97.5634 25.6682 96.8003 25.8269 95.8952 25.8269L91.1558 25.8269L91.1558 13.1654L92.6862 13.1654L92.6862 18.4822L92.6862 18.4822ZM102.856 13.1654L102.856 25.8269L101.326 25.8269L101.326 13.1654L102.856 13.1654L102.856 13.1654ZM105.92 13.1654L107.426 13.1654L107.426 23.1314L107.549 23.1314L114.461 13.1654L115.942 13.1654L115.942 25.8269L114.411 25.8269L114.411 15.8856L114.288 15.8856L107.401 25.8269L105.92 25.8269L105.92 13.1654L105.92 13.1654ZM133.345 13.1654L133.345 25.8269L131.815 25.8269L131.815 14.5255L125.447 14.5255L125.447 25.8269L123.916 25.8269L123.916 13.1654L133.345 13.1654L133.345 13.1654ZM148.583 25.8269L148.583 24.4173L148.954 24.4173C149.48 24.4173 149.89 24.2483 150.182 23.9104C150.474 23.5724 150.684 23.0263 150.811 22.272C150.943 21.5178 151.031 20.5183 151.076 19.2736L151.299 13.1654L159 13.1654L159 25.8269L157.47 25.8269L157.47 14.5255L152.755 14.5255L152.557 19.5703C152.508 20.8975 152.387 22.0268 152.193 22.9583C152 23.8897 151.661 24.6007 151.175 25.0912C150.69 25.5817 149.982 25.8269 149.052 25.8269L148.583 25.8269L148.583 25.8269ZM145.615 19.4961C145.615 18.3998 145.432 17.4745 145.066 16.7202C144.704 15.966 144.212 15.3952 143.591 15.0077C142.974 14.6203 142.283 14.4266 141.518 14.4266C140.752 14.4266 140.059 14.6203 139.438 15.0077C138.821 15.3952 138.329 15.966 137.963 16.7202C137.601 17.4745 137.42 18.3998 137.42 19.4961C137.42 20.5925 137.601 21.5178 137.963 22.272C138.329 23.0263 138.821 23.5971 139.438 23.9845C140.059 24.372 140.752 24.5657 141.518 24.5657C142.283 24.5657 142.974 24.372 143.591 23.9845C144.212 23.5971 144.704 23.0263 145.066 22.272C145.432 21.5178 145.615 20.5925 145.615 19.4961L145.615 19.4961ZM92.6862 24.4915L92.6862 19.8424L95.8952 19.8424C96.7591 19.8424 97.4235 20.0629 97.8884 20.5039C98.3533 20.9408 98.5857 21.4621 98.5857 22.068C98.5857 22.4802 98.4808 22.8717 98.271 23.2427C98.0653 23.6095 97.7609 23.9104 97.3577 24.1453C96.9586 24.3761 96.4711 24.4915 95.8952 24.4915L92.6862 24.4915L92.6862 24.4915Z" id="Теплый-пол" fill="#000000" fill-rule="evenodd" stroke="none" />
  </g>
</svg>