<?xml version="1.0" encoding="utf-8"?>
<svg width="24.001465px" height="24px" viewBox="0 0 24.001465 24" version="1.1" xmlns:xlink="http://www.w3.org/1999/xlink" xmlns="http://www.w3.org/2000/svg">
  <g id="youtube" fill-opacity="1" transform="translate(0.0014648438 0)">
    <path d="M-1203 -1487L-1203 -1487L-1203 -1463L-1227 -1463L-1227 -1487L-1203 -1487Z" id="youtube" fill="none" stroke="none" />
    <path d="M12.0767 2.99805L12.1043 2.99811L12.2105 2.99844C13.4432 3.00297 19.6909 3.04826 21.3753 3.50112C22.408 3.77809 23.2211 4.59432 23.4971 5.63042C23.6491 6.19967 23.755 6.95626 23.8288 7.7344L23.8431 7.89026C23.8547 8.0203 23.8654 8.15064 23.8754 8.2805L23.8869 8.43605C23.9855 9.80721 23.997 11.0903 23.9983 11.371L23.9985 11.4089L23.9985 11.4465L23.9983 11.4844C23.9969 11.7757 23.9846 13.1465 23.8754 14.575L23.8631 14.731L23.85 14.8872C23.7757 15.746 23.6642 16.5989 23.4971 17.225C23.2211 18.2611 22.408 19.0775 21.3753 19.3543C19.6347 19.8224 13.0216 19.8552 12.1043 19.8575L12.0337 19.8576L11.9786 19.8576L11.8927 19.8575C11.4291 19.8563 9.51085 19.8474 7.50195 19.7784L7.24511 19.7692C7.20225 19.7677 7.15938 19.7661 7.11651 19.7644L6.85937 19.7543L6.60283 19.7434C4.93857 19.6703 3.35179 19.5506 2.62184 19.3543C1.58921 19.0775 0.776057 18.2611 0.500069 17.225C0.332869 16.5989 0.221403 15.746 0.147092 14.8872L0.133986 14.731L0.121675 14.575C0.0163551 13.1985 0.00106668 11.8755 -0.0011526 11.5204L-0.0014178 11.4696L-0.00146484 11.4569L-0.00146484 11.3985L-0.0014178 11.3859L-0.0011526 11.335C0.000857306 11.0134 0.0135868 9.898 0.0942066 8.66788L0.104642 8.51356C0.106441 8.48776 0.108271 8.46192 0.110132 8.43605L0.121675 8.2805C0.13161 8.15064 0.142348 8.0203 0.153951 7.89026L0.168294 7.7344C0.24213 6.95626 0.348069 6.19967 0.500069 5.63042C0.776057 4.59432 1.58921 3.77809 2.62184 3.50112C3.35179 3.30488 4.93857 3.18517 6.60283 3.11215L6.85937 3.10128L7.11651 3.09113C7.15938 3.08949 7.20225 3.08788 7.24511 3.08631L7.50195 3.07717C9.38263 3.01261 11.1838 3.00066 11.7865 2.99844L11.8927 2.99811L11.9203 2.99805L12.0767 2.99805L12.0767 2.99805ZM9.59859 7.81484L9.59859 15.0405L15.8337 11.4279L9.59859 7.81484L9.59859 7.81484Z" id="Combined-Shape" fill="#232020" fill-rule="evenodd" stroke="none" />
  </g>
</svg>